<svg width="9" height="7" viewBox="0 0 9 7" fill="none" xmlns="http://www.w3.org/2000/svg">
<path d="M3.09471 4.38069L7.23971 0.195069C7.3685 0.0650076 7.53243 -2.28882e-05 7.73148 -2.28882e-05C7.93054 -2.28882e-05 8.09446 0.0650076 8.22326 0.195069C8.35206 0.325131 8.41646 0.490663 8.41646 0.691668C8.41646 0.892672 8.35206 1.05821 8.22326 1.18827L3.58649 5.87048C3.44598 6.01237 3.28206 6.08331 3.09471 6.08331C2.90737 6.08331 2.74344 6.01237 2.60294 5.87048L0.776328 4.02597C0.647529 3.89591 0.58313 3.73038 0.58313 3.52937C0.58313 3.32837 0.647529 3.16284 0.776328 3.03278C0.905128 2.90271 1.06905 2.83768 1.26811 2.83768C1.46716 2.83768 1.63109 2.90271 1.75989 3.03278L3.09471 4.38069Z" fill="white"/>
</svg>
