<svg width="58" height="24" viewBox="0 0 58 24" fill="none" xmlns="http://www.w3.org/2000/svg">
<rect width="58" height="24" rx="12" fill="#01B99F"/>
<path d="M15.5494 8.624H17.2654V11.456C16.6894 11.48 16.1134 11.492 15.5494 11.504V8.624ZM19.7854 11.264C19.2814 11.312 18.7534 11.36 18.2134 11.396V8.624H19.2814V7.844H13.5334V8.624H14.5894V11.528C14.1214 11.528 13.6534 11.528 13.2334 11.528L13.3294 12.344C15.1894 12.332 17.6854 12.308 19.8454 11.972L19.7854 11.264ZM15.7054 15.812H21.5494V13.232H14.7094V14H20.5774V15.08H14.7454V17.768H21.9454V16.988H15.7054V15.812ZM21.5494 9.488V7.124H20.5654V12.716H21.5494V10.304H23.1454V9.488H21.5494ZM29.4805 15.752V13.724H32.9245V12.932H26.3005V11.192H32.6725V7.916H25.3045V8.72H31.7125V10.4H25.3285V13.724H28.4845V15.752H24.1045V16.556H33.8845V15.752H29.4805ZM39.8835 8.348C41.5275 8.348 42.6435 8.96 42.6435 9.908C42.6435 10.868 41.5275 11.48 39.8835 11.48C38.2515 11.48 37.1355 10.868 37.1355 9.908C37.1355 8.96 38.2515 8.348 39.8835 8.348ZM39.8835 12.272C42.1275 12.272 43.6515 11.36 43.6515 9.908C43.6515 8.468 42.1275 7.556 39.8835 7.556C37.6515 7.556 36.1275 8.468 36.1275 9.908C36.1275 11.36 37.6515 12.272 39.8835 12.272ZM44.7795 13.292H35.0355V14.108H39.3915V17.9H40.3755V14.108H44.7795V13.292Z" fill="white"/>
</svg>
